<svg width="14" height="20" viewBox="0 0 14 20" fill="none" xmlns="http://www.w3.org/2000/svg">
<path d="M12.9204 3.42423C11.7066 1.32954 9.55064 0.0498169 7.15318 0.000910645C7.05084 -0.00119873 6.94783 -0.00119873 6.84545 0.000910645C4.44802 0.0498169 2.29209 1.32954 1.07826 3.42423C-0.162445 5.56533 -0.19639 8.1372 0.987438 10.304L5.94693 19.3817C5.94916 19.3857 5.95138 19.3897 5.95369 19.3937C6.17189 19.7729 6.56279 19.9994 6.99939 19.9994C7.43595 19.9994 7.82685 19.7729 8.04502 19.3937C8.04732 19.3897 8.04955 19.3857 8.05177 19.3817L13.0113 10.304C14.195 8.1372 14.1611 5.56533 12.9204 3.42423ZM6.99931 9.06185C5.44849 9.06185 4.18681 7.80017 4.18681 6.24935C4.18681 4.69853 5.44849 3.43685 6.99931 3.43685C8.55013 3.43685 9.81181 4.69853 9.81181 6.24935C9.81181 7.80017 8.55017 9.06185 6.99931 9.06185Z" fill="#FFD600"/>
</svg>
