<svg width="16" height="16" viewBox="0 0 16 16" fill="none" xmlns="http://www.w3.org/2000/svg">
<path d="M15.5127 15.5321C15.2134 15.8317 14.8075 16 14.3843 16C13.9611 16 13.5552 15.8317 13.2559 15.5321L8.00002 10.2697L2.74415 15.5321C2.44313 15.8232 2.03996 15.9843 1.62147 15.9806C1.20299 15.977 0.802672 15.8089 0.506748 15.5126C0.210823 15.2163 0.042964 14.8155 0.0393276 14.3965C0.0356913 13.9775 0.196567 13.5738 0.487304 13.2724L5.74317 8.00999L0.487304 2.74754C0.334863 2.60013 0.213272 2.42379 0.129623 2.22882C0.0459757 2.03385 0.00194359 1.82415 0.000102043 1.61196C-0.0017395 1.39977 0.0386438 1.18933 0.118896 0.992936C0.199148 0.796539 0.317663 0.618111 0.467523 0.468064C0.617382 0.318017 0.795588 0.199355 0.991739 0.119002C1.18789 0.03865 1.39806 -0.00178354 1.60998 6.03384e-05C1.82191 0.00190422 2.03135 0.045989 2.22607 0.129742C2.4208 0.213496 2.59692 0.33524 2.74415 0.487872L8.00002 5.75032L13.2559 0.487872C13.4031 0.33524 13.5792 0.213496 13.774 0.129742C13.9687 0.045989 14.1781 0.00190422 14.3901 6.03384e-05C14.602 -0.00178354 14.8122 0.03865 15.0083 0.119002C15.2045 0.199355 15.3827 0.318017 15.5325 0.468064C15.6824 0.618111 15.8009 0.796539 15.8811 0.992936C15.9614 1.18933 16.0018 1.39977 15.9999 1.61196C15.9981 1.82415 15.9541 2.03385 15.8704 2.22882C15.7868 2.42379 15.6652 2.60013 15.5127 2.74754L10.2569 8.00999L15.5127 13.2724C15.812 13.5721 15.98 13.9785 15.98 14.4023C15.98 14.826 15.812 15.2324 15.5127 15.5321Z" fill="white"/>
</svg>
