<svg width="26" height="26" viewBox="0 0 26 26" fill="none" xmlns="http://www.w3.org/2000/svg">
<path d="M17.6368 8.36248C17.5206 8.24532 17.3824 8.15232 17.23 8.08886C17.0777 8.0254 16.9143 7.99273 16.7493 7.99273C16.5843 7.99273 16.4209 8.0254 16.2686 8.08886C16.1163 8.15232 15.978 8.24532 15.8618 8.36248L12.9993 11.2375L10.1368 8.36248C9.90143 8.1271 9.58218 7.99486 9.24931 7.99486C8.91643 7.99486 8.59719 8.1271 8.36181 8.36248C8.12643 8.59786 7.99419 8.9171 7.99419 9.24998C7.99419 9.58285 8.12643 9.9021 8.36181 10.1375L11.2368 13L8.36181 15.8625C8.24465 15.9787 8.15165 16.1169 8.08819 16.2693C8.02473 16.4216 7.99206 16.585 7.99206 16.75C7.99206 16.915 8.02473 17.0784 8.08819 17.2307C8.15165 17.383 8.24465 17.5213 8.36181 17.6375C8.47801 17.7546 8.61626 17.8476 8.76859 17.9111C8.92091 17.9746 9.08429 18.0072 9.24931 18.0072C9.41432 18.0072 9.5777 17.9746 9.73003 17.9111C9.88235 17.8476 10.0206 17.7546 10.1368 17.6375L12.9993 14.7625L15.8618 17.6375C15.978 17.7546 16.1163 17.8476 16.2686 17.9111C16.4209 17.9746 16.5843 18.0072 16.7493 18.0072C16.9143 18.0072 17.0777 17.9746 17.23 17.9111C17.3824 17.8476 17.5206 17.7546 17.6368 17.6375C17.754 17.5213 17.847 17.383 17.9104 17.2307C17.9739 17.0784 18.0066 16.915 18.0066 16.75C18.0066 16.585 17.9739 16.4216 17.9104 16.2693C17.847 16.1169 17.754 15.9787 17.6368 15.8625L14.7618 13L17.6368 10.1375C17.754 10.0213 17.847 9.88302 17.9104 9.7307C17.9739 9.57837 18.0066 9.41499 18.0066 9.24998C18.0066 9.08496 17.9739 8.92158 17.9104 8.76925C17.847 8.61693 17.754 8.47868 17.6368 8.36248ZM21.8368 4.16248C20.6837 2.9686 19.3044 2.01632 17.7794 1.36121C16.2543 0.706097 14.6141 0.361269 12.9543 0.346846C11.2946 0.332424 9.64859 0.648695 8.11238 1.27721C6.57618 1.90572 5.18053 2.83388 4.00687 4.00754C2.83321 5.1812 1.90505 6.57685 1.27653 8.11305C0.648024 9.64925 0.331752 11.2952 0.346175 12.955C0.360598 14.6147 0.705426 16.255 1.36054 17.78C2.01565 19.3051 2.96793 20.6844 4.16181 21.8375C5.31489 23.0314 6.6942 23.9836 8.21925 24.6387C9.7443 25.2939 11.3846 25.6387 13.0443 25.6531C14.704 25.6675 16.35 25.3513 17.8862 24.7227C19.4224 24.0942 20.8181 23.1661 21.9917 21.9924C23.1654 20.8188 24.0936 19.4231 24.7221 17.8869C25.3506 16.3507 25.6669 14.7047 25.6524 13.045C25.638 11.3852 25.2932 9.74497 24.6381 8.21992C23.983 6.69487 23.0307 5.31556 21.8368 4.16248ZM20.0743 20.075C18.4394 21.7117 16.2875 22.731 13.9853 22.9591C11.6831 23.1872 9.37306 22.61 7.44871 21.3259C5.52435 20.0418 4.10475 18.1302 3.43177 15.9168C2.75879 13.7034 2.87406 11.3252 3.75795 9.18721C4.64183 7.04926 6.23965 5.28391 8.27917 4.19193C10.3187 3.09995 12.6737 2.74889 14.9431 3.19857C17.2124 3.64825 19.2556 4.87084 20.7246 6.65805C22.1936 8.44526 22.9975 10.6865 22.9993 13C23.0038 14.3141 22.7475 15.616 22.2455 16.8305C21.7434 18.0449 21.0054 19.1477 20.0743 20.075Z" fill="#272727"/>
</svg>
