<svg width="23" height="23" viewBox="0 0 23 23" fill="none" xmlns="http://www.w3.org/2000/svg">
<path fill-rule="evenodd" clip-rule="evenodd" d="M11.5 0C9.22552 0 7.00211 0.674463 5.11095 1.9381C3.21978 3.20174 1.7458 4.99779 0.87539 7.09914C0.00498282 9.20049 -0.222756 11.5128 0.220974 13.7435C0.664704 15.9743 1.75997 18.0234 3.36828 19.6317C4.97658 21.24 7.02568 22.3353 9.25646 22.779C11.4872 23.2228 13.7995 22.995 15.9009 22.1246C18.0022 21.2542 19.7983 19.7802 21.0619 17.8891C22.3255 15.9979 23 13.7745 23 11.5C23 8.45001 21.7884 5.52494 19.6317 3.36827C17.4751 1.2116 14.55 0 11.5 0ZM8.27111 20.2859C7.94984 20.2857 7.63592 20.1897 7.3695 20.0102C7.10309 19.8306 6.89631 19.5757 6.77561 19.2779C6.65491 18.9802 6.62579 18.6532 6.69197 18.3388C6.75815 18.0245 6.91663 17.737 7.14711 17.5132C7.3776 17.2894 7.66963 17.1394 7.98582 17.0825C8.30201 17.0256 8.62799 17.0643 8.92205 17.1937C9.21611 17.3231 9.46487 17.5373 9.63652 17.8089C9.80816 18.0805 9.89487 18.3971 9.88556 18.7182C9.87338 19.1382 9.69792 19.5369 9.39647 19.8297C9.09501 20.1224 8.6913 20.286 8.27111 20.2859ZM16.3433 20.2859C16.0221 20.2857 15.7081 20.1897 15.4417 20.0102C15.1753 19.8306 14.9685 19.5757 14.8478 19.2779C14.7271 18.9802 14.698 18.6532 14.7642 18.3388C14.8304 18.0245 14.9889 17.737 15.2193 17.5132C15.4498 17.2894 15.7419 17.1394 16.058 17.0825C16.3742 17.0256 16.7002 17.0643 16.9943 17.1937C17.2883 17.3231 17.5371 17.5373 17.7087 17.8089C17.8804 18.0805 17.9671 18.3971 17.9578 18.7182C17.9459 19.1322 17.7753 19.5258 17.4813 19.8176C17.1874 20.1094 16.7925 20.277 16.3784 20.2859H16.3433ZM19.4084 7.01933L16.5071 12.2721C16.3779 12.5243 16.1793 12.7343 15.9348 12.8773C15.6902 13.0203 15.4098 13.0904 15.1267 13.0793H9.16023L8.4349 14.3896V14.4715C8.43765 14.514 8.45579 14.5541 8.48593 14.5843C8.51607 14.6144 8.55615 14.6325 8.59868 14.6353H17.9578V16.2497H8.27111C7.84293 16.2497 7.43229 16.0796 7.12953 15.7769C6.82676 15.4741 6.65667 15.0635 6.65667 14.6353C6.67042 14.3595 6.72563 14.0874 6.82045 13.8281L7.99034 11.8861L5.04222 5.75585H3.42778V4.1414H6.09512L6.82045 5.75585H18.7182C18.826 5.74898 18.934 5.76516 19.0351 5.8033C19.1361 5.84144 19.2279 5.90066 19.3042 5.97703C19.3806 6.05341 19.4398 6.14517 19.478 6.24622C19.5161 6.34727 19.5323 6.45528 19.5254 6.56307C19.5722 6.70346 19.5605 6.69176 19.4084 7.01933Z" fill="#FFD600"/>
</svg>
