<svg width="29" height="29" viewBox="0 0 29 29" fill="none" xmlns="http://www.w3.org/2000/svg">
<path d="M14.5002 -1.15488e-05C11.6334 0.00497845 8.83247 0.859628 6.45128 2.45594C4.07009 4.05225 2.21551 6.31858 1.12191 8.96854C0.0283118 11.6185 -0.255238 14.5332 0.307095 17.3442C0.869427 20.1553 2.25241 22.7366 4.28127 24.7619C6.31013 26.7873 8.89382 28.1658 11.7059 28.7232C14.5179 29.2806 17.4321 28.992 20.0801 27.8938C22.7282 26.7956 24.9913 24.9371 26.5834 22.5531C28.1756 20.1692 29.0254 17.3667 29.0254 14.5C29.0271 12.5932 28.6523 10.7049 27.9226 8.94327C27.1929 7.18165 26.1227 5.5814 24.7732 4.23429C23.4238 2.88718 21.8217 1.81971 20.0588 1.09309C18.2959 0.366473 16.4069 -0.00499511 14.5002 -1.15488e-05ZM24.0785 14.9291C23.7864 15.6183 23.357 16.2409 22.8165 16.7589L15.1438 24.4191C15.0615 24.503 14.9633 24.5697 14.855 24.6152C14.7466 24.6607 14.6303 24.6842 14.5128 24.6842C14.3953 24.6842 14.2789 24.6607 14.1706 24.6152C14.0622 24.5697 13.964 24.503 13.8818 24.4191L6.15856 16.7589C5.63658 16.2394 5.22238 15.622 4.93975 14.9419C4.65712 14.2619 4.51162 13.5328 4.51162 12.7963C4.51162 12.0599 4.65712 11.3308 4.93975 10.6507C5.22238 9.97071 5.63658 9.35323 6.15856 8.83376C7.23189 7.78168 8.67495 7.19238 10.1779 7.19238C11.6809 7.19238 13.1239 7.78168 14.1973 8.83376L14.5002 9.14925L14.803 8.83376C15.8764 7.78168 17.3194 7.19238 18.8224 7.19238C20.3254 7.19238 21.7684 7.78168 22.8418 8.83376C23.3766 9.35652 23.8051 9.97791 24.1037 10.6636C24.3909 11.3466 24.5369 12.0807 24.5328 12.8216C24.5238 13.5474 24.3694 14.264 24.0785 14.9291Z" fill="#FFD600"/>
</svg>
