<svg width="94" height="94" viewBox="0 0 94 94" fill="none" xmlns="http://www.w3.org/2000/svg">
<circle cx="47" cy="47" r="47" fill="#FFD600"/>
<path d="M60.17 54.46C60.17 56.95 59.27 59.11 57.47 60.94C55.7 62.74 53.12 63.895 49.73 64.405V69.4H44.33V64.585C42.08 64.435 39.95 64.06 37.94 63.46C35.93 62.83 34.265 62.065 32.945 61.165L35.87 54.595C37.28 55.525 38.915 56.275 40.775 56.845C42.635 57.415 44.465 57.7 46.265 57.7C49.685 57.7 51.395 56.845 51.395 55.135C51.395 54.235 50.9 53.575 49.91 53.155C48.95 52.705 47.39 52.24 45.23 51.76C42.86 51.25 40.88 50.71 39.29 50.14C37.7 49.54 36.335 48.595 35.195 47.305C34.055 46.015 33.485 44.275 33.485 42.085C33.485 39.505 34.415 37.3 36.275 35.47C38.135 33.61 40.82 32.47 44.33 32.05V27.1H49.73V31.96C51.44 32.11 53.075 32.41 54.635 32.86C56.225 33.31 57.635 33.895 58.865 34.615L56.12 41.23C53.12 39.61 50.21 38.8 47.39 38.8C45.62 38.8 44.33 39.07 43.52 39.61C42.71 40.12 42.305 40.795 42.305 41.635C42.305 42.475 42.785 43.105 43.745 43.525C44.705 43.945 46.25 44.38 48.38 44.83C50.78 45.34 52.76 45.895 54.32 46.495C55.91 47.065 57.275 47.995 58.415 49.285C59.585 50.545 60.17 52.27 60.17 54.46Z" fill="white"/>
</svg>
