<svg width="82" height="82" viewBox="0 0 82 82" fill="none" xmlns="http://www.w3.org/2000/svg">
<path d="M46.2726 52.2117C55.9361 56.4571 66.4868 53.7141 69.8384 46.085C73.3753 38.1525 65.3471 30.6143 60.8909 27.8368C50.0276 19.7899 39.9545 22.7473 38.4929 25.0378L34.844 30.7113C31.4924 38.3403 36.6092 47.9664 46.2726 52.2117Z" fill="#935427"/>
<path fill-rule="evenodd" clip-rule="evenodd" d="M33.3292 29.9006L37.0478 24.1188C37.0485 24.1179 37.0491 24.1169 37.0498 24.1158C37.7263 23.0583 39.0739 22.281 40.4995 21.7693C42.0182 21.2243 43.948 20.8632 46.153 20.8525C50.5685 20.8309 56.1404 22.2131 61.8482 26.4236C64.2225 27.9143 67.5117 30.6367 69.784 34.0884C72.085 37.5837 73.4867 42.0819 71.3957 46.7764C67.5202 55.5902 55.7413 58.2397 45.5805 53.7758C35.4181 49.3112 29.4014 38.8414 33.275 30.0241L33.3292 29.9006ZM69.8335 46.085C73.3703 38.1525 65.3422 30.6142 60.886 27.8367C50.0227 19.7899 39.9496 22.7474 38.488 25.0378L34.839 30.7113C31.4875 38.3403 36.6042 47.9664 46.2676 52.2118C55.9311 56.4571 66.4819 53.7141 69.8335 46.085Z" fill="#62310F"/>
<path d="M71.8462 43.0676C68.4946 50.6966 57.9438 53.4397 48.2804 49.1943C38.6169 44.9489 33.5001 35.3229 36.8518 27.6938C40.2034 20.0648 50.7541 17.3217 60.4176 21.5671C70.081 25.8124 75.1978 35.4385 71.8462 43.0676Z" fill="#AE6937"/>
<path fill-rule="evenodd" clip-rule="evenodd" d="M73.4131 43.7547C69.5396 52.5719 57.7586 55.2229 47.5962 50.7583C37.4337 46.2938 31.417 35.8239 35.2906 27.0067C39.1642 18.1895 50.9451 15.5385 61.1076 20.003C71.27 24.4676 77.2868 34.9374 73.4131 43.7547ZM48.2833 49.1943C57.9467 53.4396 68.4975 50.6966 71.849 43.0676C75.2007 35.4385 70.0839 25.8125 60.4205 21.5671C50.757 17.3217 40.2063 20.0648 36.8546 27.6938C33.503 35.3228 38.6198 44.949 48.2833 49.1943Z" fill="#784018"/>
<path fill-rule="evenodd" clip-rule="evenodd" d="M50.7162 21.3542C45.588 21.3542 41.4497 24.2682 40.0628 25.688C39.7332 26.0254 39.1925 26.0319 38.855 25.7022C38.5175 25.3726 38.5112 24.8318 38.8408 24.4944C40.4436 22.8533 44.9963 19.6458 50.7162 19.6458C51.1879 19.6458 51.5703 20.0283 51.5703 20.5C51.5703 20.9718 51.1879 21.3542 50.7162 21.3542Z" fill="#975728"/>
<path fill-rule="evenodd" clip-rule="evenodd" d="M54.0709 50.9116C59.0252 50.0652 63.1426 47.3285 65.0144 43.0676C68.3661 35.4385 63.2493 25.8125 53.5858 21.5671C51.67 20.7255 49.7193 20.1585 47.7969 19.8498C51.7133 19.1807 56.1527 19.6928 60.4192 21.5671C70.0826 25.8125 75.1994 35.4385 71.8477 43.0676C69.1606 49.1842 61.8459 52.16 54.0709 50.9116Z" fill="#93592E"/>
<path d="M31.7392 62.4594C41.5878 58.6632 47.142 49.2827 44.1451 41.5076C41.1481 33.7324 19.5673 34.5345 9.71875 38.3307V43.5404C12.3912 45.3766 14.1181 48.2899 14.1181 51.5699C14.1181 51.9514 14.0948 52.328 14.0493 52.6985C16.916 53.0618 19.5178 54.5573 21.0965 57.0518C22.4369 59.1698 22.8106 61.646 22.3428 64.0263C25.3571 64.1732 28.5772 63.6782 31.7392 62.4594Z" fill="#B8692F"/>
<path fill-rule="evenodd" clip-rule="evenodd" d="M8.00781 38.3309C8.00781 37.6244 8.44259 36.9908 9.10168 36.7368C14.2911 34.7365 22.3912 33.5687 29.571 33.8732C33.1687 34.0257 36.6488 34.5516 39.4753 35.5946C42.2604 36.6223 44.7274 38.2753 45.7365 40.8933C49.2003 49.8794 42.7082 60.0613 32.3511 64.0535C28.9722 65.3559 25.5147 65.8915 22.257 65.7326C21.7614 65.7085 21.3007 65.47 20.9948 65.0792C20.6891 64.6884 20.5683 64.1838 20.6639 63.697C21.0548 61.7079 20.7373 59.683 19.6504 57.9655C18.3725 55.9462 16.2476 54.6996 13.8319 54.3934C12.8985 54.275 12.2364 53.4242 12.3511 52.4904C12.3882 52.1887 12.4072 51.8817 12.4072 51.57C12.4072 48.9179 11.0138 46.5048 8.74874 44.9485C8.28497 44.6298 8.00785 44.1032 8.00785 43.5405L8.00781 38.3309ZM9.71617 38.3308C19.5647 34.5346 41.1455 33.7325 44.1425 41.5077C47.1394 49.2828 41.5852 58.6633 31.7366 62.4595C29.1738 63.4474 26.5728 63.9597 24.0742 64.0402C23.49 64.059 22.9114 64.0542 22.3402 64.0263C22.451 63.4626 22.5146 62.8934 22.5293 62.3249C22.5767 60.4932 22.1168 58.6682 21.0939 57.052C19.5153 54.5575 16.9134 53.062 14.0467 52.6985C14.0922 52.3281 14.1156 51.9516 14.1156 51.57C14.1156 48.29 12.3886 45.3767 9.71617 43.5405V38.3308Z" fill="#673512"/>
<path fill-rule="evenodd" clip-rule="evenodd" d="M21.4594 58.2859C21.9309 58.2859 22.3133 58.6683 22.3133 59.14V64.0515C22.3133 64.5232 21.9309 64.9056 21.4594 64.9056C20.9878 64.9056 20.6055 64.5232 20.6055 64.0515V59.14C20.6055 58.6683 20.9878 58.2859 21.4594 58.2859Z" fill="#673512"/>
<path fill-rule="evenodd" clip-rule="evenodd" d="M9.71875 42.3304C20.3087 40.5657 34.1055 41.385 36.4574 47.4868C38.2603 52.1639 36.9687 57.422 33.5094 61.6959C42.2396 57.5136 46.9574 48.8037 44.1451 41.5076C41.1481 33.7324 19.5673 34.5345 9.71875 38.3307V42.3304Z" fill="#9D5622"/>
<path fill-rule="evenodd" clip-rule="evenodd" d="M31.7392 57.3344C41.5877 53.5382 47.142 44.1578 44.145 36.3826C41.148 28.6074 30.7346 25.3818 20.886 29.178C15.8523 31.1183 11.9404 34.5175 9.71875 38.4155C12.3911 40.2516 14.118 43.1649 14.118 46.445C14.118 46.8264 14.0947 47.203 14.0492 47.5735C16.916 47.9369 19.5178 49.4323 21.0964 51.9268C22.4368 54.0448 22.8105 56.5211 22.3427 58.9013C25.357 59.0482 28.5772 58.5532 31.7392 57.3344Z" fill="#CC7A3D"/>
<path fill-rule="evenodd" clip-rule="evenodd" d="M8.74894 39.8235C8.01706 39.3206 7.79244 38.341 8.23214 37.5696C10.6639 33.3029 14.8975 29.6546 20.2693 27.5841C30.6264 23.5918 42.2728 26.7822 45.7366 35.7682C49.2004 44.7544 42.7083 54.9363 32.3512 58.9285C28.9723 60.231 25.5148 60.7665 22.2572 60.6077C21.7615 60.5835 21.3008 60.345 20.995 59.9541C20.6892 59.5634 20.5684 59.0589 20.6641 58.5719C21.0549 56.583 20.7374 54.5579 19.6505 52.8405C18.3726 50.8211 16.2478 49.5746 13.832 49.2683C12.8986 49.15 12.2366 48.2992 12.3512 47.3653C12.3883 47.0637 12.4073 46.7567 12.4073 46.445C12.4073 43.793 11.014 41.3799 8.74894 39.8235ZM9.71628 38.4155C11.938 34.5175 15.8499 31.1184 20.8837 29.1781C30.7322 25.3819 41.1456 28.6075 44.1426 36.3826C47.1396 44.1579 41.5853 53.5383 31.7368 57.3345C29.1739 58.3223 26.5729 58.8348 24.0743 58.9152C23.4901 58.934 22.9115 58.9292 22.3404 58.9013C22.4511 58.3376 22.5147 57.7684 22.5294 57.1999C22.5768 55.3682 22.1169 53.5432 21.094 51.9269C19.5155 49.4324 16.9135 47.937 14.0468 47.5736C14.0924 47.2031 14.1157 46.8265 14.1157 46.445C14.1157 43.165 12.3887 40.2517 9.71628 38.4155Z" fill="#773E15"/>
<path fill-rule="evenodd" clip-rule="evenodd" d="M11.5477 37.6778C11.7903 37.2733 12.315 37.1421 12.7195 37.3848C14.4298 38.411 15.564 40.1506 16.2921 41.8101C16.8848 43.1612 17.2384 44.5275 17.4127 45.5692C19.9576 46.0034 21.8261 47.8052 23.1132 49.7769C24.3164 51.62 25.0873 53.719 25.4901 55.3295C28.0965 54.9406 33.3298 53.4418 37.9007 49.7326C38.267 49.4354 38.805 49.4914 39.1022 49.8577C39.3995 50.224 39.3434 50.7619 38.9772 51.0591C33.6107 55.4139 27.4026 56.9122 24.8961 57.1195L24.1349 57.1825L23.9875 56.4331C23.692 54.9304 22.9437 52.6423 21.6827 50.7106C20.4162 48.7706 18.7352 47.3356 16.5999 47.1908L15.8847 47.1424L15.8083 46.4296C15.7099 45.5112 15.3831 43.9905 14.7276 42.4964C14.0677 40.9918 13.1199 39.6173 11.8406 38.8497C11.4361 38.607 11.3049 38.0823 11.5477 37.6778Z" fill="#E08847"/>
<path fill-rule="evenodd" clip-rule="evenodd" d="M32.1135 54.2295C32.2903 54.6667 32.079 55.1645 31.6416 55.3412C28.7936 56.4918 26.2929 57.0028 24.8934 57.1185C24.4232 57.1574 24.0106 56.8079 23.9717 56.3379C23.9328 55.8679 24.2824 55.4553 24.7525 55.4165C25.96 55.3167 28.2924 54.8522 31.0016 53.7577C31.4389 53.5811 31.9368 53.7922 32.1135 54.2295Z" fill="#F29754"/>
<path d="M28.5941 31.8109C28.578 32.5821 27.7658 33.1905 26.7801 33.1698C25.7943 33.1491 25.0083 32.5073 25.0245 31.7362C25.0407 30.965 25.8529 30.3567 26.8386 30.3773C27.8243 30.398 28.6103 31.0398 28.5941 31.8109ZM32.9824 32.0474C32.9714 32.5753 32.4154 32.9917 31.7406 32.9776C31.0658 32.9635 30.5278 32.5241 30.5389 31.9963C30.5499 31.4684 31.1059 31.0519 31.7807 31.066C32.4555 31.0802 32.9935 31.5196 32.9824 32.0474ZM38.3472 33.748C38.3361 34.2759 37.7801 34.6924 37.1053 34.6783C36.4306 34.6641 35.8925 34.2247 35.9036 33.6968C35.9146 33.169 36.4706 32.7525 37.1454 32.7666C37.8202 32.7807 38.3582 33.2201 38.3472 33.748ZM34.3174 34.5923C34.3092 34.9853 33.8953 35.2952 33.393 35.2847C32.8908 35.2742 32.4902 34.9472 32.4984 34.5542C32.5066 34.1613 32.9205 33.8513 33.4228 33.8618C33.9251 33.8723 34.3256 34.1993 34.3174 34.5923ZM30.0725 29.2617C30.0643 29.6547 29.6504 29.9646 29.1481 29.9541C28.6459 29.9436 28.2454 29.6166 28.2536 29.2236C28.2618 28.8306 28.6756 28.5207 29.178 28.5312C29.6802 28.5417 30.0807 28.8687 30.0725 29.2617ZM35.8411 30.6845C35.8329 31.0774 35.419 31.3875 34.9167 31.377C34.4144 31.3665 34.0139 31.0394 34.0221 30.6464C34.0303 30.2535 34.4441 29.9435 34.9465 29.954C35.4487 29.9645 35.8493 30.2916 35.8411 30.6845ZM41.7521 34.7229C41.7439 35.1158 41.33 35.4258 40.8278 35.4153C40.3255 35.4047 39.925 35.0777 39.9332 34.6848C39.9414 34.2918 40.3552 33.9818 40.8576 33.9924C41.3598 34.0029 41.7603 34.3299 41.7521 34.7229ZM20.0572 35.058C20.0531 35.2537 19.847 35.4081 19.5968 35.4029C19.3466 35.3976 19.1471 35.2348 19.1512 35.0391C19.1553 34.8434 19.3614 34.6889 19.6116 34.6942C19.8617 34.6995 20.0612 34.8623 20.0572 35.058ZM22.7733 30.7228C22.765 31.1157 22.3512 31.4258 21.8489 31.4153C21.3466 31.4048 20.9461 31.0777 20.9544 30.6847C20.9626 30.2918 21.3764 29.9818 21.8787 29.9923C22.381 30.0028 22.7815 30.3299 22.7733 30.7228ZM24.1047 33.5155C24.0965 33.9085 23.6826 34.2185 23.1803 34.208C22.6781 34.1975 22.2776 33.8704 22.2858 33.4775C22.294 33.0845 22.7078 32.7745 23.2101 32.785C23.7124 32.7955 24.1129 33.1226 24.1047 33.5155ZM37.1542 36.7653C37.146 37.1582 36.732 37.4682 36.2298 37.4577C35.7274 37.4472 35.3269 37.1202 35.3352 36.7272C35.3434 36.3342 35.7573 36.0243 36.2596 36.0348C36.7618 36.0453 37.1624 36.3723 37.1542 36.7653ZM20.1628 32.6085C20.1545 33.0015 19.7407 33.3114 19.2384 33.3009C18.7361 33.2904 18.3356 32.9634 18.3439 32.5704C18.3521 32.1774 18.7659 31.8675 19.2683 31.878C19.7705 31.8885 20.171 32.2155 20.1628 32.6085ZM30.4879 35.1013C30.4778 35.5833 29.9702 35.9635 29.3542 35.9506C28.7381 35.9377 28.2467 35.5365 28.2569 35.0546C28.267 34.5726 28.7746 34.1924 29.3906 34.2053C30.0068 34.2182 30.498 34.6193 30.4879 35.1013Z" fill="#BE6E34"/>
<path d="M53.4148 28.2082C52.8198 29.3919 51.1109 29.7348 49.5977 28.9742C48.0847 28.2136 47.3404 26.6374 47.9355 25.4537C48.5305 24.27 50.2396 23.9271 51.7526 24.6877C53.2657 25.4484 54.0099 27.0246 53.4148 28.2082Z" fill="#3C1D0C"/>
<path d="M61.7769 25.5831C61.4305 26.2723 60.4356 26.4719 59.5547 26.0291C58.6738 25.5862 58.2405 24.6686 58.5869 23.9795C58.9333 23.2904 59.9283 23.0907 60.8092 23.5335C61.6901 23.9763 62.1233 24.894 61.7769 25.5831ZM65.6363 27.6851C65.3991 28.1569 64.7181 28.2935 64.1151 27.9904C63.512 27.6873 63.2154 27.0591 63.4526 26.5874C63.6897 26.1156 64.3708 25.9789 64.9738 26.2821C65.5769 26.5852 65.8734 27.2134 65.6363 27.6851ZM69.747 31.5289C69.5098 32.0006 68.8288 32.1373 68.2257 31.8342C67.6227 31.531 67.3261 30.9029 67.5632 30.4311C67.8004 29.9593 68.4815 29.8227 69.0845 30.1258C69.6875 30.429 69.9841 31.0571 69.747 31.5289ZM65.7461 30.5567C65.5696 30.9079 65.0626 31.0096 64.6137 30.784C64.1649 30.5584 63.944 30.0907 64.1206 29.7396C64.2971 29.3884 64.8041 29.2867 65.253 29.5124C65.7018 29.738 65.9226 30.2056 65.7461 30.5567ZM56.9909 22.096C56.8144 22.4471 56.3074 22.5489 55.8585 22.3233C55.4096 22.0976 55.1888 21.63 55.3654 21.2789C55.5419 20.9276 56.0489 20.8259 56.4978 21.0516C56.9466 21.2773 57.1674 21.7448 56.9909 22.096ZM56.9909 25.1899C56.8144 25.541 56.3074 25.6427 55.8585 25.4171C55.4096 25.1915 55.1888 24.7238 55.3654 24.3727C55.5419 24.0215 56.0489 23.9198 56.4978 24.1455C56.9466 24.3711 57.1674 24.8387 56.9909 25.1899ZM67.3717 33.739C67.1951 34.0902 66.6881 34.1919 66.2393 33.9662C65.7904 33.7406 65.5696 33.273 65.7462 32.9219C65.9226 32.5707 66.4297 32.469 66.8785 32.6946C67.3274 32.9202 67.5482 33.3879 67.3717 33.739ZM53.823 22.6747C53.6465 23.0258 53.1395 23.1276 52.6907 22.9019C52.2418 22.6763 52.021 22.2087 52.1976 21.8575C52.374 21.5063 52.8811 21.4046 53.3299 21.6303C53.7788 21.856 53.9996 22.3235 53.823 22.6747ZM62.0704 29.3682C61.8539 29.7989 61.232 29.9237 60.6815 29.6469C60.1309 29.3701 59.8601 28.7967 60.0766 28.3659C60.2931 27.9352 60.9149 27.8104 61.4655 28.0872C62.0161 28.3639 62.2869 28.9375 62.0704 29.3682Z" fill="#D78346"/>
<path d="M23.6435 37.6107C24.0249 38.6173 23.291 39.8286 22.0043 40.3163C20.7175 40.8038 19.3651 40.3831 18.9837 39.3764C18.6022 38.3698 19.3361 37.1585 20.6229 36.6709C21.9097 36.1833 23.262 36.6041 23.6435 37.6107ZM38.3663 41.2036C38.8358 42.4425 37.9325 43.9332 36.3489 44.5333C34.7653 45.1334 33.1009 44.6156 32.6315 43.3767C32.162 42.1378 33.0653 40.647 34.6489 40.047C36.2325 39.4469 37.8969 39.9647 38.3663 41.2036ZM26.9103 47.2732C27.2008 48.0397 26.6419 48.962 25.6621 49.3332C24.6824 49.7045 23.6527 49.3841 23.3623 48.6177C23.0719 47.8512 23.6307 46.9289 24.6104 46.5577C25.5901 46.1864 26.6198 46.5068 26.9103 47.2732ZM56.0314 41.4359C55.4364 42.6196 53.7274 42.9626 52.2143 42.2019C50.7013 41.4413 49.957 39.8651 50.5521 38.6814C51.1472 37.4978 52.8561 37.1548 54.3692 37.9155C55.8823 38.6761 56.6265 40.2522 56.0314 41.4359ZM67.9501 38.4184C67.355 39.6021 65.646 39.9451 64.133 39.1844C62.6199 38.4238 61.8757 36.8476 62.4707 35.6639C63.0658 34.4802 64.7747 34.1372 66.2878 34.8979C67.8009 35.6585 68.5451 37.2347 67.9501 38.4184Z" fill="#3C1D0C"/>
</svg>
