<svg width="167" height="49" viewBox="0 0 167 49" fill="none" xmlns="http://www.w3.org/2000/svg">
<g clip-path="url(#clip0_6_23)">
<path fill-rule="evenodd" clip-rule="evenodd" d="M22.0137 11.6053C26.7192 5.52221 32.2114 -0.000488281 41.727 -0.000488281C55.1347 -0.000488281 66.0007 10.8028 66.0007 24.1252C66.0007 37.4479 55.1333 48.2498 41.727 48.2498C33.6898 48.2498 27.0029 45.2668 22.5122 38.9014C21.5581 37.549 21.8877 35.684 23.2485 34.7357C24.6092 33.7875 26.4858 34.1151 27.4399 35.4675C30.6405 40.0043 35.3486 42.2684 41.727 42.2684C51.8093 42.2684 59.9823 34.1446 59.9823 24.1252C59.9823 14.1055 51.81 5.98091 41.727 5.98091C35.1497 5.98091 31.2181 9.51488 26.7623 15.2803L26.7621 15.2806C26.0802 16.1626 25.0895 16.808 24.2829 17.2463C23.4002 17.7259 22.3865 18.1438 21.3671 18.4605C20.353 18.7756 19.2416 19.0191 18.165 19.097C17.1686 19.1692 15.8219 19.1304 14.6055 18.526C13.119 17.7873 12.5165 15.9909 13.2598 14.5135C13.986 13.0699 15.7286 12.4652 17.1947 13.1276C17.2365 13.1329 17.3992 13.1552 17.7277 13.1315C18.2327 13.0949 18.8788 12.9667 19.5714 12.7516C20.2586 12.5381 20.9006 12.2672 21.3957 11.9981C21.85 11.7512 22.0122 11.5974 22.0159 11.6011C22.0162 11.6014 22.0154 11.6028 22.0137 11.6053Z" fill="#FFD600"/>
<path fill-rule="evenodd" clip-rule="evenodd" d="M15.8485 13.4579C17.5105 13.4579 18.8577 14.7969 18.8577 16.4486V35.1899C18.8577 36.8417 17.5105 38.1806 15.8485 38.1806C14.1866 38.1806 12.8394 36.8417 12.8394 35.1899V16.4486C12.8394 14.7969 14.1866 13.4579 15.8485 13.4579Z" fill="#FFD600"/>
<path fill-rule="evenodd" clip-rule="evenodd" d="M1.78997 13.8208C3.20445 12.9255 5.0814 13.3393 5.98226 14.7451L18.0004 33.4995C18.9013 34.9052 18.4849 36.7707 17.0704 37.666C15.6559 38.5613 13.779 38.1475 12.8781 36.7417L0.859979 17.9873C-0.0408799 16.5816 0.375491 14.7161 1.78997 13.8208Z" fill="#FFD600"/>
<path fill-rule="evenodd" clip-rule="evenodd" d="M21.997 24.0343C22.5297 22.5572 24.1663 21.789 25.6525 22.3184L44.3187 28.9679C45.8048 29.4973 46.5778 31.1239 46.0451 32.6009C45.5124 34.078 43.8758 34.8462 42.3896 34.3168L23.7234 27.6673C22.2373 27.1379 21.4643 25.5113 21.997 24.0343Z" fill="#FFD600"/>
<path fill-rule="evenodd" clip-rule="evenodd" d="M45.581 15.1411C46.2527 16.5611 45.639 18.2534 44.2103 18.9209L26.2654 27.3057C24.8367 27.9733 23.134 27.3634 22.4623 25.9434C21.7906 24.5235 22.4042 22.8312 23.833 22.1636L41.7778 13.7788C43.2065 13.1112 44.9093 13.7212 45.581 15.1411Z" fill="#FFD600"/>
<path fill-rule="evenodd" clip-rule="evenodd" d="M3.00869 13.4579C4.67061 13.4579 6.01786 14.7969 6.01786 16.4486V35.1899C6.01786 36.8417 4.67061 38.1806 3.00869 38.1806C1.34677 38.1806 -0.000488281 36.8417 -0.000488281 35.1899V16.4486C-0.000488281 14.7969 1.34677 13.4579 3.00869 13.4579Z" fill="#FFD600"/>
<path fill-rule="evenodd" clip-rule="evenodd" d="M38.1161 18.044C39.5011 18.044 40.6239 19.1599 40.6239 20.5363V28.3116C40.6239 29.6881 39.5011 30.804 38.1161 30.804C36.7312 30.804 35.6084 29.6881 35.6084 28.3116V20.5363C35.6084 19.1599 36.7312 18.044 38.1161 18.044Z" fill="#FFD600"/>
</g>
<path d="M85 7.00562H96.4913C99.0894 7.00562 101.382 7.51276 103.369 8.52707C105.272 9.46412 106.88 10.9759 107.998 12.8783C109.097 14.7636 109.646 16.9833 109.648 19.5374C109.649 22.0916 109.099 24.3119 107.998 26.1984C106.881 28.101 105.273 29.6123 103.369 30.5478C101.382 31.5585 99.0894 32.0638 96.4913 32.0638H85V7.00562ZM96.1632 25.4818C97.8508 25.4818 99.1994 24.9624 100.209 23.9236C101.219 22.8848 101.724 21.4227 101.725 19.5374C101.725 17.6522 101.22 16.1901 100.209 15.1513C99.1982 14.1125 97.8496 13.5937 96.1632 13.5949H92.8609V25.4818H96.1632Z" fill="white"/>
<path d="M136.558 7.00543V32.0636H130.097L121.238 20.671V32.0636H113.577V7.00543H120.038L128.897 18.398V7.00543H136.558Z" fill="white"/>
<path d="M157.308 27.7014H148.449L146.884 32.0637H138.895L149.087 7H156.814L167 32.0637H158.874L157.308 27.7014ZM155.143 21.6137L152.878 15.3129L150.613 21.6137H155.143Z" fill="white"/>
<path d="M103.638 47.3151C103.963 47.1696 104.252 46.9428 104.48 46.6536L104.957 47.2452C104.677 47.6046 104.321 47.8863 103.918 48.0666C103.421 48.2771 102.889 48.3716 102.356 48.3437C101.823 48.3158 101.301 48.1662 100.826 47.9049C100.337 47.6226 99.9317 47.1978 99.6568 46.6793C99.3733 46.1394 99.2293 45.5278 99.2398 44.9079C99.2305 44.2904 99.3681 43.6807 99.6398 43.1365C99.8946 42.6274 100.277 42.2053 100.744 41.9182C101.231 41.6215 101.784 41.4705 102.344 41.4809C102.872 41.4733 103.393 41.6152 103.855 41.8925C104.301 42.163 104.673 42.557 104.93 43.0336C105.201 43.542 105.347 44.1162 105.354 44.7021L100.195 45.7807C100.339 46.3029 100.644 46.7567 101.06 47.067C101.502 47.3869 102.026 47.5507 102.559 47.5356C102.929 47.5403 103.296 47.4653 103.638 47.3151ZM101.166 42.5908C100.821 42.8094 100.54 43.1277 100.354 43.5095C100.154 43.9234 100.054 44.3846 100.062 44.8509C100.06 44.9455 100.064 45.04 100.074 45.1339L104.504 44.2152C104.421 43.6736 104.163 43.1807 103.776 42.8223C103.378 42.4534 102.867 42.2569 102.342 42.271C101.93 42.2615 101.524 42.372 101.166 42.5908Z" fill="white"/>
<path d="M107.925 47.8351C107.618 47.4933 107.465 47.018 107.465 46.4092V38.7596H108.319V46.3338C108.297 46.6647 108.391 46.9927 108.583 47.2526C108.685 47.363 108.809 47.4483 108.945 47.5025C109.081 47.5567 109.226 47.5787 109.371 47.5668C109.567 47.5723 109.762 47.5328 109.943 47.4511L110.003 48.2081C109.758 48.3028 109.499 48.3507 109.239 48.3496C108.669 48.3484 108.231 48.1769 107.925 47.8351Z" fill="white"/>
<path d="M115.184 47.3151C115.51 47.1696 115.798 46.9428 116.026 46.6536L116.503 47.2452C116.223 47.6046 115.867 47.8863 115.464 48.0666C114.968 48.2771 114.435 48.3716 113.902 48.3437C113.369 48.3158 112.847 48.1662 112.372 47.9049C111.882 47.6226 111.477 47.1979 111.201 46.6793C110.918 46.1391 110.774 45.5277 110.784 44.9079C110.775 44.2904 110.913 43.6807 111.184 43.1365C111.439 42.6274 111.821 42.2053 112.288 41.9182C112.776 41.6215 113.328 41.4705 113.888 41.4809C114.417 41.4733 114.938 41.6152 115.399 41.8925C115.846 42.163 116.217 42.557 116.474 43.0336C116.745 43.542 116.891 44.1162 116.898 44.7021L111.74 45.7807C111.883 46.3029 112.188 46.7567 112.605 47.067C113.047 47.3869 113.571 47.5507 114.104 47.5356C114.474 47.5405 114.841 47.4656 115.184 47.3151ZM112.712 42.5908C112.367 42.8094 112.086 43.1277 111.9 43.5095C111.7 43.9234 111.6 44.3846 111.608 44.8509C111.606 44.9455 111.61 45.04 111.62 45.1339L116.05 44.2152C115.967 43.6736 115.709 43.1807 115.322 42.8223C114.924 42.4534 114.413 42.2569 113.888 42.271C113.477 42.2615 113.07 42.372 112.712 42.5908Z" fill="white"/>
<path d="M119.947 47.9122C119.464 47.6276 119.065 47.203 118.795 46.6866C118.515 46.143 118.373 45.5294 118.383 44.9079C118.374 44.2881 118.518 43.6767 118.8 43.1365C119.071 42.623 119.47 42.2011 119.952 41.9183C120.464 41.6209 121.038 41.4703 121.619 41.4809C122.121 41.4722 122.617 41.5886 123.07 41.8209C123.489 42.0415 123.839 42.3873 124.079 42.8168L123.446 43.278C123.251 42.9561 122.979 42.6965 122.658 42.5265C122.334 42.3592 121.979 42.2738 121.619 42.2766C121.192 42.27 120.77 42.3827 120.395 42.6037C120.033 42.819 119.736 43.1425 119.541 43.5353C119.34 43.9627 119.235 44.4347 119.235 44.9134C119.235 45.3921 119.34 45.8642 119.541 46.2915C119.738 46.6794 120.034 46.9983 120.395 47.2103C120.77 47.4321 121.192 47.5449 121.619 47.5374C121.978 47.5412 122.333 47.4576 122.658 47.293C122.978 47.1301 123.251 46.8759 123.446 46.558L124.079 47.021C123.837 47.4515 123.485 47.797 123.063 48.0151C122.613 48.2474 122.118 48.3638 121.619 48.3551C121.036 48.3642 120.46 48.2117 119.947 47.9122Z" fill="white"/>
<path d="M129.112 47.8663C128.942 48.0271 128.742 48.1473 128.526 48.2191C128.291 48.3007 128.045 48.3417 127.798 48.3404C127.21 48.3404 126.755 48.1695 126.43 47.8278C126.106 47.486 125.954 47.0027 125.954 46.378V40.0569H126.808V41.5269H128.706V42.2968H126.808V46.3283C126.785 46.6611 126.883 46.9906 127.082 47.2471C127.187 47.357 127.313 47.4417 127.451 47.4958C127.588 47.55 127.735 47.5723 127.882 47.5613C128.222 47.577 128.555 47.4535 128.813 47.2159L129.112 47.8663Z" fill="white"/>
<path d="M132.741 41.8282C133.194 41.5818 133.697 41.4623 134.205 41.4809V42.3666L134.001 42.3537C133.34 42.3537 132.823 42.5718 132.449 43.0079C132.075 43.444 131.888 44.0565 131.887 44.8454V48.2852H131.032V41.5323H131.844V42.8553C132.031 42.4167 132.346 42.0558 132.741 41.8282Z" fill="white"/>
<path d="M136.097 39.864C136.039 39.8041 135.993 39.7321 135.962 39.6524C135.931 39.5728 135.916 39.4872 135.917 39.4009C135.917 39.317 135.933 39.2339 135.964 39.1568C135.994 39.0796 136.04 39.0102 136.097 38.9526C136.155 38.8912 136.224 38.8433 136.3 38.8117C136.376 38.7801 136.458 38.7655 136.539 38.7688C136.62 38.7666 136.701 38.7817 136.777 38.8132C136.853 38.8448 136.922 38.8921 136.98 38.9526C137.037 39.0088 137.083 39.0773 137.114 39.1536C137.145 39.2298 137.16 39.3122 137.16 39.3954C137.159 39.5274 137.122 39.6562 137.053 39.7658C136.985 39.8754 136.888 39.9608 136.775 40.0116C136.661 40.0623 136.537 40.0761 136.416 40.0511C136.295 40.0262 136.184 39.9637 136.097 39.8713V39.864ZM136.108 41.5325H136.963V48.2835H136.108V41.5325Z" fill="white"/>
<path d="M140.64 47.9122C140.156 47.6277 139.757 47.203 139.488 46.6866C139.204 46.1441 139.058 45.5305 139.065 44.9079C139.056 44.2881 139.2 43.6767 139.482 43.1366C139.753 42.6231 140.152 42.2011 140.635 41.9183C141.146 41.6207 141.72 41.47 142.301 41.481C142.802 41.4719 143.298 41.5883 143.751 41.8209C144.17 42.0409 144.521 42.3869 144.761 42.8168L144.132 43.2725C143.937 42.9497 143.665 42.6899 143.344 42.521C143.02 42.3536 142.665 42.2681 142.306 42.2711C141.879 42.2643 141.457 42.377 141.082 42.5982C140.719 42.813 140.422 43.1367 140.228 43.5298C140.027 43.9572 139.923 44.4292 139.923 44.9079C139.923 45.3866 140.027 45.8587 140.228 46.2861C140.424 46.6743 140.721 46.9933 141.082 47.2048C141.457 47.4268 141.879 47.5396 142.306 47.5319C142.665 47.5358 143.019 47.4523 143.344 47.2875C143.665 47.1256 143.937 46.8712 144.132 46.5525L144.766 47.0155C144.524 47.4456 144.171 47.791 143.751 48.0096C143.3 48.2417 142.806 48.3581 142.306 48.3496C141.725 48.3597 141.151 48.2091 140.64 47.9122Z" fill="white"/>
<path d="M147.027 48.1107C146.63 47.9908 146.259 47.7879 145.935 47.5135L146.318 46.7951C146.616 47.0396 146.951 47.2262 147.309 47.3463C147.71 47.488 148.129 47.5594 148.55 47.5576C149.12 47.5576 149.544 47.4615 149.822 47.2691C149.952 47.1847 150.058 47.0646 150.131 46.9213C150.203 46.7779 150.239 46.6163 150.234 46.4533C150.239 46.3441 150.221 46.2352 150.181 46.1344C150.142 46.0337 150.082 45.9436 150.007 45.8708C149.84 45.7203 149.644 45.6106 149.434 45.5492C149.132 45.4592 148.825 45.3887 148.514 45.3379C148.099 45.2595 147.689 45.1546 147.285 45.0237C146.98 44.9181 146.706 44.728 146.491 44.4725C146.259 44.1753 146.141 43.794 146.162 43.4067C146.159 43.1355 146.217 42.8675 146.331 42.6258C146.445 42.3841 146.613 42.176 146.819 42.0194C147.256 41.6617 147.865 41.4822 148.646 41.481C149.057 41.4814 149.466 41.5395 149.863 41.6537C150.218 41.7459 150.557 41.8998 150.866 42.1094L150.497 42.8444C149.95 42.4508 149.304 42.2492 148.646 42.2674C148.104 42.2674 147.697 42.3703 147.422 42.5761C147.295 42.6616 147.19 42.7808 147.118 42.9224C147.046 43.064 147.009 43.2232 147.01 43.3846C147.005 43.4992 147.024 43.6135 147.064 43.7198C147.104 43.826 147.165 43.9217 147.243 44.0002C147.408 44.1609 147.607 44.2773 147.822 44.3402C148.137 44.4339 148.456 44.5093 148.778 44.5662C149.184 44.6432 149.587 44.7457 149.983 44.873C150.28 44.9723 150.548 45.1543 150.759 45.4004C150.986 45.6842 151.102 46.0518 151.082 46.4257C151.088 46.7032 151.029 46.978 150.91 47.224C150.79 47.47 150.614 47.6791 150.398 47.8314C149.942 48.1793 149.307 48.3527 148.494 48.3514C147.996 48.3527 147.502 48.2715 147.027 48.1107Z" fill="white"/>
<defs>
<clipPath id="clip0_6_23">
<rect width="66" height="49" fill="white"/>
</clipPath>
</defs>
</svg>
