<svg width="29" height="29" viewBox="0 0 29 29" fill="none" xmlns="http://www.w3.org/2000/svg">
<path d="M14.4999 -1.15488e-05C11.6332 0.00497845 8.83222 0.859628 6.45103 2.45594C4.06984 4.05225 2.21527 6.31858 1.12167 8.96854C0.0280677 11.6185 -0.255482 14.5332 0.306851 17.3442C0.869183 20.1553 2.25216 22.7366 4.28102 24.7619C6.30989 26.7873 8.89358 28.1658 11.7056 28.7232C14.5176 29.2806 17.4318 28.992 20.0799 27.8938C22.7279 26.7956 24.991 24.9371 26.5832 22.5531C28.1754 20.1692 29.0251 17.3667 29.0252 14.5C29.0268 12.5932 28.6521 10.7049 27.9224 8.94327C27.1927 7.18165 26.1224 5.5814 24.773 4.23429C23.4235 2.88718 21.8214 1.81971 20.0585 1.09309C18.2957 0.366473 16.4067 -0.00499511 14.4999 -1.15488e-05ZM24.0782 14.9291C23.7861 15.6183 23.3568 16.2409 22.8163 16.7589L15.1435 24.4191C15.0613 24.503 14.9631 24.5697 14.8547 24.6152C14.7464 24.6607 14.6301 24.6842 14.5125 24.6842C14.395 24.6842 14.2787 24.6607 14.1703 24.6152C14.062 24.5697 13.9638 24.503 13.8815 24.4191L6.15831 16.7589C5.63634 16.2394 5.22214 15.622 4.93951 14.9419C4.65687 14.2619 4.51138 13.5328 4.51138 12.7963C4.51138 12.0599 4.65687 11.3308 4.93951 10.6507C5.22214 9.97071 5.63634 9.35323 6.15831 8.83376C7.23165 7.78168 8.6747 7.19238 10.1777 7.19238C11.6806 7.19238 13.1237 7.78168 14.197 8.83376L14.4999 9.14925L14.8028 8.83376C15.8761 7.78168 17.3192 7.19238 18.8221 7.19238C20.3251 7.19238 21.7682 7.78168 22.8415 8.83376C23.3764 9.35652 23.8049 9.97791 24.1035 10.6636C24.3907 11.3466 24.5366 12.0807 24.5325 12.8216C24.5236 13.5474 24.3691 14.264 24.0782 14.9291Z" fill="#FFD600"/>
</svg>
