<svg width="29" height="29" viewBox="0 0 29 29" fill="none" xmlns="http://www.w3.org/2000/svg">
<path fill-rule="evenodd" clip-rule="evenodd" d="M14.5 0C11.6322 0 8.82875 0.85041 6.44424 2.44369C4.05973 4.03697 2.20122 6.30156 1.10375 8.95109C0.0062826 11.6006 -0.280866 14.5161 0.27862 17.3288C0.838106 20.1415 2.2191 22.7252 4.24696 24.753C6.27482 26.7809 8.85847 28.1619 11.6712 28.7214C14.4839 29.2809 17.3994 28.9937 20.0489 27.8963C22.6984 26.7988 24.963 24.9403 26.5563 22.5558C28.1496 20.1713 29 17.3678 29 14.5C29 10.6544 27.4723 6.96623 24.7531 4.24695C22.0338 1.52767 18.3456 0 14.5 0ZM10.4288 25.5778C10.0237 25.5777 9.6279 25.4566 9.29198 25.2302C8.95607 25.0038 8.69534 24.6824 8.54316 24.307C8.39098 23.9316 8.35426 23.5193 8.43771 23.1229C8.52115 22.7265 8.72097 22.364 9.01158 22.0818C9.3022 21.7996 9.6704 21.6106 10.0691 21.5388C10.4678 21.4671 10.8788 21.5159 11.2495 21.679C11.6203 21.8422 11.934 22.1123 12.1504 22.4547C12.3668 22.7971 12.4761 23.1963 12.4644 23.6012C12.449 24.1308 12.2278 24.6335 11.8477 25.0026C11.4676 25.3717 10.9586 25.578 10.4288 25.5778ZM20.6068 25.5778C20.2017 25.5777 19.8059 25.4566 19.47 25.2302C19.1341 25.0038 18.8734 24.6824 18.7212 24.307C18.569 23.9316 18.5323 23.5193 18.6157 23.1229C18.6992 22.7265 18.899 22.364 19.1896 22.0818C19.4802 21.7996 19.8484 21.6106 20.2471 21.5388C20.6458 21.4671 21.0568 21.5159 21.4276 21.679C21.7983 21.8422 22.112 22.1123 22.3284 22.4547C22.5448 22.7971 22.6542 23.1963 22.6424 23.6012C22.6274 24.1232 22.4123 24.6195 22.0417 24.9874C21.6711 25.3553 21.1732 25.5667 20.6511 25.5778H20.6068ZM24.4715 8.85046L20.8133 15.4736C20.6505 15.7915 20.4001 16.0563 20.0917 16.2366C19.7833 16.4169 19.4297 16.5053 19.0727 16.4914H11.5499L10.6353 18.1434V18.2467C10.6388 18.3003 10.6616 18.3509 10.6997 18.3889C10.7377 18.4269 10.7882 18.4497 10.8418 18.4532H22.6424V20.4888H10.4288C9.88892 20.4888 9.37116 20.2743 8.98941 19.8926C8.60766 19.5108 8.39319 18.9931 8.39319 18.4532C8.41053 18.1055 8.48014 17.7624 8.5997 17.4354L10.0748 14.9868L6.35759 7.25738H4.32198V5.22177H7.68515L8.5997 7.25738H23.6012C23.7371 7.24872 23.8733 7.26911 24.0007 7.3172C24.1281 7.36529 24.2439 7.43997 24.3401 7.53626C24.4364 7.63256 24.5111 7.74826 24.5592 7.87567C24.6073 8.00308 24.6277 8.13927 24.619 8.27518C24.678 8.45219 24.6633 8.43744 24.4715 8.85046Z" fill="#FFD600"/>
</svg>
