<svg width="29" height="29" viewBox="0 0 29 29" fill="none" xmlns="http://www.w3.org/2000/svg">
<path d="M14.5002 4.94863e-05C11.6334 0.00503948 8.83247 0.859689 6.45128 2.456C4.07009 4.05231 2.21551 6.31864 1.12191 8.96861C0.0283118 11.6186 -0.255238 14.5332 0.307095 17.3443C0.869427 20.1554 2.25241 22.7367 4.28127 24.762C6.31013 26.7873 8.89382 28.1658 11.7059 28.7233C14.5179 29.2807 17.4321 28.9921 20.0801 27.8939C22.7282 26.7957 24.9913 24.9372 26.5834 22.5532C28.1756 20.1692 29.0254 17.3668 29.0254 14.5C29.0271 12.5933 28.6523 10.705 27.9226 8.94333C27.1929 7.18171 26.1227 5.58146 24.7732 4.23435C23.4238 2.88724 21.8217 1.81977 20.0588 1.09315C18.2959 0.366534 16.4069 -0.00493407 14.5002 4.94863e-05ZM24.0785 14.9291C23.7864 15.6184 23.357 16.241 22.8165 16.759L15.1438 24.4191C15.0615 24.5031 14.9633 24.5697 14.855 24.6153C14.7466 24.6608 14.6303 24.6843 14.5128 24.6843C14.3953 24.6843 14.2789 24.6608 14.1706 24.6153C14.0622 24.5697 13.964 24.5031 13.8818 24.4191L6.15856 16.759C5.63658 16.2395 5.22238 15.622 4.93975 14.942C4.65712 14.262 4.51162 13.5328 4.51162 12.7964C4.51162 12.06 4.65712 11.3308 4.93975 10.6508C5.22238 9.97077 5.63658 9.35329 6.15856 8.83382C7.23189 7.78174 8.67495 7.19244 10.1779 7.19244C11.6809 7.19244 13.1239 7.78174 14.1973 8.83382L14.5002 9.14931L14.803 8.83382C15.8764 7.78174 17.3194 7.19244 18.8224 7.19244C20.3254 7.19244 21.7684 7.78174 22.8418 8.83382C23.3766 9.35658 23.8051 9.97797 24.1037 10.6637C24.3909 11.3467 24.5369 12.0807 24.5328 12.8216C24.5238 13.5474 24.3694 14.2641 24.0785 14.9291Z" fill="#FFD600"/>
</svg>
