<svg width="82" height="82" viewBox="0 0 82 82" fill="none" xmlns="http://www.w3.org/2000/svg">
<path d="M57.876 28.1298C57.6283 27.8818 57.3342 27.6851 57.0105 27.5509C56.6868 27.4166 56.3399 27.3476 55.9895 27.3476C55.6391 27.3476 55.2921 27.4166 54.9684 27.5509C54.6447 27.6851 54.3506 27.8818 54.1029 28.1298L34.0529 48.1805L27.8295 41.9536C27.5818 41.7057 27.2877 41.5091 26.964 41.3749C26.6403 41.2408 26.2933 41.1717 25.943 41.1717C25.5926 41.1717 25.2457 41.2408 24.922 41.3749C24.5983 41.5091 24.3041 41.7057 24.0564 41.9536C23.8086 42.2015 23.6121 42.4958 23.478 42.8197C23.344 43.1436 23.275 43.4907 23.275 43.8413C23.275 44.1918 23.344 44.539 23.478 44.8629C23.6121 45.1867 23.8086 45.481 24.0564 45.7289L32.1681 53.8417C32.4158 54.0897 32.7099 54.2864 33.0336 54.4207C33.3573 54.5549 33.7043 54.624 34.0547 54.624C34.4051 54.624 34.7521 54.5549 35.0758 54.4207C35.3995 54.2864 35.6936 54.0897 35.9413 53.8417L57.876 31.8944C58.3742 31.3948 58.654 30.7179 58.654 30.0121C58.654 29.3064 58.3742 28.6294 57.876 28.1298ZM77.2894 34.3354C76.4466 33.5739 75.177 32.4211 75.0241 31.8446C74.8534 31.2041 75.3797 29.578 75.7532 28.3896C76.5355 25.9379 77.421 23.1589 76.0128 20.7251C74.6045 18.2912 71.7168 17.6401 69.1848 17.0921C68.0504 16.8466 66.3398 16.4765 65.8918 16.0246C65.4437 15.5727 65.0809 13.8648 64.8249 12.7297C64.2772 10.1962 63.6585 7.32472 61.194 5.89786C58.7295 4.47101 55.9841 5.3748 53.5374 6.15762C52.3461 6.53479 50.7209 7.0543 50.0808 6.86927C49.5189 6.71626 48.3667 5.44597 47.5915 4.60266C45.8596 2.70256 43.8645 0.5 40.9662 0.5C38.0679 0.5 36.0622 2.70256 34.3161 4.64536C33.5728 5.48155 32.4028 6.75896 31.841 6.90485C31.2008 7.07565 29.5756 6.54902 28.3843 6.1932C25.9376 5.41038 23.1602 4.52438 20.7278 5.93345C18.2953 7.34251 17.6445 10.2318 17.0969 12.7653C16.8515 13.9004 16.4816 15.6119 16.03 16.0602C15.5784 16.5086 13.8714 16.8715 12.7369 17.1277C10.2156 17.6543 7.34572 18.2912 5.91968 20.7393C4.49363 23.1874 5.39691 25.9522 6.18995 28.4038C6.56691 29.5922 7.08967 31.2184 6.90119 31.8589C6.74828 32.4211 5.47871 33.5739 4.63588 34.3496C2.7013 36.0825 0.5 38.0894 0.5 40.9893C0.5 43.8893 2.7013 45.8855 4.64299 47.6433C5.48582 48.4047 6.75539 49.5576 6.90831 50.134C7.07901 50.7745 6.55268 52.4006 6.19706 53.5926C5.41469 56.0407 4.5292 58.8197 5.93746 61.2536C7.34572 63.6874 10.2334 64.3386 12.7654 64.8865C13.8998 65.132 15.6104 65.5021 16.0585 65.954C16.5065 66.4059 16.8693 68.1103 17.1253 69.2454C17.673 71.7789 18.2918 74.6504 20.7562 76.0772C23.2207 77.5041 25.9661 76.6003 28.4128 75.8175C29.6041 75.4403 31.2293 74.9208 31.8694 75.088C32.4313 75.241 33.5835 76.5113 34.3588 77.3546C36.1369 79.2974 38.1106 81.5 41.0089 81.5C43.9072 81.5 45.8987 79.2974 47.659 77.3546C48.4201 76.5113 49.5723 75.241 50.1484 75.088C50.7885 74.9172 52.4137 75.4439 53.6015 75.8175C56.0517 76.6003 58.8291 77.4863 61.2616 76.0772C63.694 74.6682 64.3448 71.7789 64.8925 69.2454C65.1378 68.1103 65.5077 66.3988 65.9593 65.954C66.411 65.5092 68.118 65.1392 69.2524 64.8865C71.7844 64.3386 74.6543 63.7194 76.0803 61.2536C77.5064 58.7877 76.6031 56.0407 75.8207 53.5926C75.4402 52.4006 74.921 50.7745 75.0917 50.134C75.2446 49.5718 76.5142 48.419 77.357 47.6433C79.2987 45.8855 81.5 43.8893 81.5 40.9893C81.5 38.0894 79.2311 36.0825 77.2894 34.3354ZM73.7083 43.6865C72.0974 45.1454 70.4295 46.6576 69.8712 48.7428C69.2986 50.8777 70.0276 53.1799 70.6713 55.201C70.9949 56.2044 71.5924 58.076 71.4003 58.5635C71.0803 59.0012 69.1137 59.4282 68.0575 59.6559C65.9024 60.122 63.6727 60.6024 62.1222 62.1467C60.5717 63.691 60.088 65.9291 59.6328 68.0854C59.4052 69.1529 58.9785 71.1099 58.5659 71.4195C58.0645 71.6223 56.1939 71.0245 55.1911 70.7078C53.1712 70.0638 50.8881 69.3343 48.7366 69.9072C46.6526 70.4659 45.1448 72.1347 43.6832 73.7466C43.0359 74.4582 41.521 76.1377 40.9876 76.1377C40.4541 76.1377 38.9392 74.4618 38.2919 73.7466C36.8339 72.1347 35.3225 70.4659 33.2386 69.9072C32.6964 69.766 32.138 69.6966 31.5778 69.7008C29.9419 69.7008 28.2883 70.2275 26.784 70.7078C25.7812 71.0316 23.9106 71.6294 23.4234 71.4373C22.986 71.117 22.5592 69.1493 22.3316 68.0925C21.8658 65.9362 21.3857 63.7052 19.8423 62.1538C18.2989 60.6024 16.062 60.1185 13.9069 59.663C12.8401 59.4353 10.8842 59.0083 10.5748 58.5955C10.3756 58.0938 10.9695 56.2222 11.286 55.2188C11.9297 53.1977 12.6587 50.9097 12.0862 48.7605C11.5278 46.6754 9.85997 45.1667 8.249 43.7043C7.53776 43.0567 5.85922 41.5409 5.85922 41.0071C5.85922 40.4734 7.5342 38.9576 8.249 38.31C9.85997 36.8475 11.5278 35.3388 12.0862 33.2537C12.6587 31.1187 11.9297 28.8166 11.286 26.7955C10.9624 25.792 10.3685 23.9168 10.557 23.4329C10.877 22.9953 12.8436 22.5683 13.8998 22.3405C16.0549 21.8744 18.2847 21.394 19.8352 19.8498C21.3857 18.3055 21.8693 16.0673 22.3245 13.911C22.5521 12.8436 22.9789 10.8865 23.3914 10.577C23.8928 10.3777 25.7634 10.9719 26.7662 11.2886C28.7826 11.9113 31.0835 12.6407 33.2172 12.0679C35.3012 11.5092 36.809 9.84041 38.2706 8.22852C38.9178 7.51687 40.4328 5.83737 40.9662 5.83737C41.4996 5.83737 43.0146 7.51331 43.6618 8.22852C45.1234 9.84041 46.6313 11.5092 48.7152 12.0679C50.8489 12.6407 53.1498 11.9113 55.1698 11.2673C56.1726 10.9435 58.0432 10.3492 58.5304 10.5378C58.9678 10.8581 59.3945 12.8258 59.6221 13.8826C60.088 16.0389 60.5681 18.2699 62.1115 19.8213C63.6549 21.3727 65.8918 21.8566 68.0468 22.3121C69.1137 22.5398 71.0696 22.9668 71.379 23.3795C71.5817 23.8813 70.9843 25.7529 70.6678 26.7563C70.0276 28.7988 69.2986 31.1009 69.8712 33.2359C70.4295 35.321 72.0974 36.8297 73.7083 38.2922C74.4196 38.9398 76.0981 40.4556 76.0981 40.9893C76.0981 41.5231 74.4231 43.0389 73.7083 43.6865ZM54.1029 28.1298L34.0529 48.1805L27.8295 41.9536C27.5818 41.7057 27.2877 41.5091 26.964 41.3749C26.6403 41.2408 26.2933 41.1717 25.943 41.1717C25.5926 41.1717 25.2457 41.2408 24.922 41.3749C24.5983 41.5091 24.3041 41.7057 24.0564 41.9536C23.8086 42.2015 23.6121 42.4958 23.478 42.8197C23.344 43.1436 23.275 43.4907 23.275 43.8413C23.275 44.1918 23.344 44.539 23.478 44.8629C23.6121 45.1867 23.8086 45.481 24.0564 45.7289L32.1681 53.8417C32.4158 54.0897 32.7099 54.2864 33.0336 54.4207C33.3573 54.5549 33.7043 54.624 34.0547 54.624C34.4051 54.624 34.7521 54.5549 35.0758 54.4207C35.3995 54.2864 35.6936 54.0897 35.9413 53.8417L57.876 31.8944C58.1307 31.6481 58.3337 31.3536 58.4733 31.0279C58.613 30.7023 58.6864 30.352 58.6893 29.9977C58.6922 29.6433 58.6245 29.292 58.4903 28.9641C58.356 28.6362 58.1578 28.3383 57.9073 28.0878C57.6567 27.8374 57.3589 27.6394 57.031 27.5053C56.7032 27.3713 56.3519 27.3039 55.9978 27.3072C55.6436 27.3104 55.2937 27.3842 54.9684 27.5242C54.643 27.6642 54.3488 27.8677 54.1029 28.1227V28.1298ZM77.2894 34.3354C76.4466 33.5739 75.177 32.4211 75.0241 31.8446C74.8534 31.2041 75.3797 29.578 75.7532 28.3896C76.5355 25.9379 77.421 23.1589 76.0128 20.7251C74.6045 18.2912 71.7168 17.6401 69.1848 17.0921C68.0504 16.8466 66.3398 16.4765 65.8918 16.0246C65.4437 15.5727 65.0809 13.8648 64.8249 12.7297C64.2772 10.1962 63.6585 7.32472 61.194 5.89786C58.7295 4.47101 55.9841 5.3748 53.5374 6.15762C52.3461 6.53479 50.7209 7.0543 50.0808 6.86927C49.5189 6.71626 48.3667 5.44597 47.5915 4.60266C45.8596 2.70256 43.8645 0.5 40.9662 0.5C38.0679 0.5 36.0622 2.70256 34.3161 4.64536C33.5728 5.48155 32.4028 6.75896 31.841 6.90485C31.2008 7.07565 29.5756 6.54902 28.3843 6.1932C25.9376 5.41038 23.1602 4.52438 20.7278 5.93345C18.2953 7.34251 17.6445 10.2318 17.0969 12.7653C16.8515 13.9004 16.4816 15.6119 16.03 16.0602C15.5784 16.5086 13.8714 16.8715 12.7369 17.1277C10.2156 17.6543 7.34572 18.2912 5.91968 20.7393C4.49363 23.1874 5.39691 25.9522 6.18995 28.4038C6.56691 29.5922 7.08967 31.2184 6.90119 31.8589C6.74828 32.4211 5.47871 33.5739 4.63588 34.3496C2.7013 36.0825 0.5 38.0894 0.5 40.9893C0.5 43.8893 2.7013 45.8855 4.64299 47.6433C5.48582 48.4047 6.75539 49.5576 6.90831 50.134C7.07901 50.7745 6.55268 52.4006 6.19706 53.5926C5.41469 56.0407 4.5292 58.8197 5.93746 61.2536C7.34572 63.6874 10.2334 64.3386 12.7654 64.8865C13.8998 65.132 15.6104 65.5021 16.0585 65.954C16.5065 66.4059 16.8693 68.1103 17.1253 69.2454C17.673 71.7789 18.2918 74.6504 20.7562 76.0772C23.2207 77.5041 25.9661 76.6003 28.4128 75.8175C29.6041 75.4403 31.2293 74.9208 31.8694 75.088C32.4313 75.241 33.5835 76.5113 34.3588 77.3546C36.1369 79.2974 38.1106 81.5 41.0089 81.5C43.9072 81.5 45.8987 79.2974 47.659 77.3546C48.4201 76.5113 49.5723 75.241 50.1484 75.088C50.7885 74.9172 52.4137 75.4439 53.6015 75.8175C56.0517 76.6003 58.8291 77.4863 61.2616 76.0772C63.694 74.6682 64.3448 71.7789 64.8925 69.2454C65.1378 68.1103 65.5077 66.3988 65.9593 65.954C66.411 65.5092 68.118 65.1392 69.2524 64.8865C71.7844 64.3386 74.6543 63.7194 76.0803 61.2536C77.5064 58.7877 76.6031 56.0407 75.8207 53.5926C75.4402 52.4006 74.921 50.7745 75.0917 50.134C75.2446 49.5718 76.5142 48.419 77.357 47.6433C79.2987 45.8855 81.5 43.8893 81.5 40.9893C81.5 38.0894 79.2311 36.0825 77.2894 34.3354ZM73.7083 43.6865C72.0974 45.1454 70.4295 46.6576 69.8712 48.7428C69.2986 50.8777 70.0276 53.1799 70.6713 55.201C70.9949 56.2044 71.5924 58.076 71.4003 58.5635C71.0803 59.0012 69.1137 59.4282 68.0575 59.6559C65.9024 60.122 63.6727 60.6024 62.1222 62.1467C60.5717 63.691 60.088 65.9291 59.6328 68.0854C59.4052 69.1529 58.9785 71.1099 58.5659 71.4195C58.0645 71.6223 56.1939 71.0245 55.1911 70.7078C53.1712 70.0638 50.8881 69.3343 48.7366 69.9072C46.6526 70.4659 45.1448 72.1347 43.6832 73.7466C43.0359 74.4582 41.521 76.1377 40.9876 76.1377C40.4541 76.1377 38.9392 74.4618 38.2919 73.7466C36.8339 72.1347 35.3225 70.4659 33.2386 69.9072C32.6964 69.766 32.138 69.6966 31.5778 69.7008C29.9419 69.7008 28.2883 70.2275 26.784 70.7078C25.7812 71.0316 23.9106 71.6294 23.4234 71.4373C22.986 71.117 22.5592 69.1493 22.3316 68.0925C21.8658 65.9362 21.3857 63.7052 19.8423 62.1538C18.2989 60.6024 16.062 60.1185 13.9069 59.663C12.8401 59.4353 10.8842 59.0083 10.5748 58.5955C10.3756 58.0938 10.9695 56.2222 11.286 55.2188C11.9297 53.1977 12.6587 50.9097 12.0862 48.7605C11.5278 46.6754 9.85997 45.1667 8.249 43.7043C7.53776 43.0567 5.85922 41.5409 5.85922 41.0071C5.85922 40.4734 7.5342 38.9576 8.249 38.31C9.85997 36.8475 11.5278 35.3388 12.0862 33.2537C12.6587 31.1187 11.9297 28.8166 11.286 26.7955C10.9624 25.792 10.3685 23.9168 10.557 23.4329C10.877 22.9953 12.8436 22.5683 13.8998 22.3405C16.0549 21.8744 18.2847 21.394 19.8352 19.8498C21.3857 18.3055 21.8693 16.0673 22.3245 13.911C22.5521 12.8436 22.9789 10.8865 23.3914 10.577C23.8928 10.3777 25.7634 10.9719 26.7662 11.2886C28.7826 11.9113 31.0835 12.6407 33.2172 12.0679C35.3012 11.5092 36.809 9.84041 38.2706 8.22852C38.9178 7.51687 40.4328 5.83737 40.9662 5.83737C41.4996 5.83737 43.0146 7.51331 43.6618 8.22852C45.1234 9.84041 46.6313 11.5092 48.7152 12.0679C50.8489 12.6407 53.1498 11.9113 55.1698 11.2673C56.1726 10.9435 58.0432 10.3492 58.5304 10.5378C58.9678 10.8581 59.3945 12.8258 59.6221 13.8826C60.088 16.0389 60.5681 18.2699 62.1115 19.8213C63.6549 21.3727 65.8918 21.8566 68.0468 22.3121C69.1137 22.5398 71.0696 22.9668 71.379 23.3795C71.5817 23.8813 70.9843 25.7529 70.6678 26.7563C70.0276 28.7988 69.2986 31.1009 69.8712 33.2359C70.4295 35.321 72.0974 36.8297 73.7083 38.2922C74.4196 38.9398 76.0981 40.4556 76.0981 40.9893C76.0981 41.5231 74.4231 43.0389 73.7083 43.6865ZM54.1029 28.1298L34.0529 48.1805L27.8295 41.9536C27.5818 41.7057 27.2877 41.5091 26.964 41.3749C26.6403 41.2408 26.2933 41.1717 25.943 41.1717C25.5926 41.1717 25.2457 41.2408 24.922 41.3749C24.5983 41.5091 24.3041 41.7057 24.0564 41.9536C23.8086 42.2015 23.6121 42.4958 23.478 42.8197C23.344 43.1436 23.275 43.4907 23.275 43.8413C23.275 44.1918 23.344 44.539 23.478 44.8629C23.6121 45.1867 23.8086 45.481 24.0564 45.7289L32.1681 53.8417C32.4158 54.0897 32.7099 54.2864 33.0336 54.4207C33.3573 54.5549 33.7043 54.624 34.0547 54.624C34.4051 54.624 34.7521 54.5549 35.0758 54.4207C35.3995 54.2864 35.6936 54.0897 35.9413 53.8417L57.876 31.8944C58.1307 31.6481 58.3337 31.3536 58.4733 31.0279C58.613 30.7023 58.6864 30.352 58.6893 29.9977C58.6922 29.6433 58.6245 29.292 58.4903 28.9641C58.356 28.6362 58.1578 28.3383 57.9073 28.0878C57.6567 27.8374 57.3589 27.6394 57.031 27.5053C56.7032 27.3713 56.3519 27.3039 55.9978 27.3072C55.6436 27.3104 55.2937 27.3842 54.9684 27.5242C54.643 27.6642 54.3488 27.8677 54.1029 28.1227V28.1298ZM77.2894 34.3354C76.4466 33.5739 75.177 32.4211 75.0241 31.8446C74.8534 31.2041 75.3797 29.578 75.7532 28.3896C76.5355 25.9379 77.421 23.1589 76.0128 20.7251C74.6045 18.2912 71.7168 17.6401 69.1848 17.0921C68.0504 16.8466 66.3398 16.4765 65.8918 16.0246C65.4437 15.5727 65.0809 13.8648 64.8249 12.7297C64.2772 10.1962 63.6585 7.32472 61.194 5.89786C58.7295 4.47101 55.9841 5.3748 53.5374 6.15762C52.3461 6.53479 50.7209 7.0543 50.0808 6.86927C49.5189 6.71626 48.3667 5.44597 47.5915 4.60266C45.8596 2.70256 43.8645 0.5 40.9662 0.5C38.0679 0.5 36.0622 2.70256 34.3161 4.64536C33.5728 5.48155 32.4028 6.75896 31.841 6.90485C31.2008 7.07565 29.5756 6.54902 28.3843 6.1932C25.9376 5.41038 23.1602 4.52438 20.7278 5.93345C18.2953 7.34251 17.6445 10.2318 17.0969 12.7653C16.8515 13.9004 16.4816 15.6119 16.03 16.0602C15.5784 16.5086 13.8714 16.8715 12.7369 17.1277C10.2156 17.6543 7.34572 18.2912 5.91968 20.7393C4.49363 23.1874 5.39691 25.9522 6.18995 28.4038C6.56691 29.5922 7.08967 31.2184 6.90119 31.8589C6.74828 32.4211 5.47871 33.5739 4.63588 34.3496C2.7013 36.0825 0.5 38.0894 0.5 40.9893C0.5 43.8893 2.7013 45.8855 4.64299 47.6433C5.48582 48.4047 6.75539 49.5576 6.90831 50.134C7.07901 50.7745 6.55268 52.4006 6.19706 53.5926C5.41469 56.0407 4.5292 58.8197 5.93746 61.2536C7.34572 63.6874 10.2334 64.3386 12.7654 64.8865C13.8998 65.132 15.6104 65.5021 16.0585 65.954C16.5065 66.4059 16.8693 68.1103 17.1253 69.2454C17.673 71.7789 18.2918 74.6504 20.7562 76.0772C23.2207 77.5041 25.9661 76.6003 28.4128 75.8175C29.6041 75.4403 31.2293 74.9208 31.8694 75.088C32.4313 75.241 33.5835 76.5113 34.3588 77.3546C36.1369 79.2974 38.1106 81.5 41.0089 81.5C43.9072 81.5 45.8987 79.2974 47.659 77.3546C48.4201 76.5113 49.5723 75.241 50.1484 75.088C50.7885 74.9172 52.4137 75.4439 53.6015 75.8175C56.0517 76.6003 58.8291 77.4863 61.2616 76.0772C63.694 74.6682 64.3448 71.7789 64.8925 69.2454C65.1378 68.1103 65.5077 66.3988 65.9593 65.954C66.411 65.5092 68.118 65.1392 69.2524 64.8865C71.7844 64.3386 74.6543 63.7194 76.0803 61.2536C77.5064 58.7877 76.6031 56.0407 75.8207 53.5926C75.4402 52.4006 74.921 50.7745 75.0917 50.134C75.2446 49.5718 76.5142 48.419 77.357 47.6433C79.2987 45.8855 81.5 43.8893 81.5 40.9893C81.5 38.0894 79.2311 36.0825 77.2894 34.3354ZM73.7083 43.6865C72.0974 45.1454 70.4295 46.6576 69.8712 48.7428C69.2986 50.8777 70.0276 53.1799 70.6713 55.201C70.9949 56.2044 71.5924 58.076 71.4003 58.5635C71.0803 59.0012 69.1137 59.4282 68.0575 59.6559C65.9024 60.122 63.6727 60.6024 62.1222 62.1467C60.5717 63.691 60.088 65.9291 59.6328 68.0854C59.4052 69.1529 58.9785 71.1099 58.5659 71.4195C58.0645 71.6223 56.1939 71.0245 55.1911 70.7078C53.1712 70.0638 50.8881 69.3343 48.7366 69.9072C46.6526 70.4659 45.1448 72.1347 43.6832 73.7466C43.0359 74.4582 41.521 76.1377 40.9876 76.1377C40.4541 76.1377 38.9392 74.4618 38.2919 73.7466C36.8339 72.1347 35.3225 70.4659 33.2386 69.9072C32.6964 69.766 32.138 69.6966 31.5778 69.7008C29.9419 69.7008 28.2883 70.2275 26.784 70.7078C25.7812 71.0316 23.9106 71.6294 23.4234 71.4373C22.986 71.117 22.5592 69.1493 22.3316 68.0925C21.8658 65.9362 21.3857 63.7052 19.8423 62.1538C18.2989 60.6024 16.062 60.1185 13.9069 59.663C12.8401 59.4353 10.8842 59.0083 10.5748 58.5955C10.3756 58.0938 10.9695 56.2222 11.286 55.2188C11.9297 53.1977 12.6587 50.9097 12.0862 48.7605C11.5278 46.6754 9.85997 45.1667 8.249 43.7043C7.53776 43.0567 5.85922 41.5409 5.85922 41.0071C5.85922 40.4734 7.5342 38.9576 8.249 38.31C9.85997 36.8475 11.5278 35.3388 12.0862 33.2537C12.6587 31.1187 11.9297 28.8166 11.286 26.7955C10.9624 25.792 10.3685 23.9168 10.557 23.4329C10.877 22.9953 12.8436 22.5683 13.8998 22.3405C16.0549 21.8744 18.2847 21.394 19.8352 19.8498C21.3857 18.3055 21.8693 16.0673 22.3245 13.911C22.5521 12.8436 22.9789 10.8865 23.3914 10.577C23.8928 10.3777 25.7634 10.9719 26.7662 11.2886C28.7826 11.9113 31.0835 12.6407 33.2172 12.0679C35.3012 11.5092 36.809 9.84041 38.2706 8.22852C38.9178 7.51687 40.4328 5.83737 40.9662 5.83737C41.4996 5.83737 43.0146 7.51331 43.6618 8.22852C45.1234 9.84041 46.6313 11.5092 48.7152 12.0679C50.8489 12.6407 53.1498 11.9113 55.1698 11.2673C56.1726 10.9435 58.0432 10.3492 58.5304 10.5378C58.9678 10.8581 59.3945 12.8258 59.6221 13.8826C60.088 16.0389 60.5681 18.2699 62.1115 19.8213C63.6549 21.3727 65.8918 21.8566 68.0468 22.3121C69.1137 22.5398 71.0696 22.9668 71.379 23.3795C71.5817 23.8813 70.9843 25.7529 70.6678 26.7563C70.0276 28.7988 69.2986 31.1009 69.8712 33.2359C70.4295 35.321 72.0974 36.8297 73.7083 38.2922C74.4196 38.9398 76.0981 40.4556 76.0981 40.9893C76.0981 41.5231 74.4231 43.0389 73.7083 43.6865ZM54.1029 28.1298L34.0529 48.1805L27.8295 41.9536C27.5818 41.7057 27.2877 41.5091 26.964 41.3749C26.6403 41.2408 26.2933 41.1717 25.943 41.1717C25.5926 41.1717 25.2457 41.2408 24.922 41.3749C24.5983 41.5091 24.3041 41.7057 24.0564 41.9536C23.8086 42.2015 23.6121 42.4958 23.478 42.8197C23.344 43.1436 23.275 43.4907 23.275 43.8413C23.275 44.1918 23.344 44.539 23.478 44.8629C23.6121 45.1867 23.8086 45.481 24.0564 45.7289L32.1681 53.8417C32.4158 54.0897 32.7099 54.2864 33.0336 54.4207C33.3573 54.5549 33.7043 54.624 34.0547 54.624C34.4051 54.624 34.7521 54.5549 35.0758 54.4207C35.3995 54.2864 35.6936 54.0897 35.9413 53.8417L57.876 31.8944C58.1307 31.6481 58.3337 31.3536 58.4733 31.0279C58.613 30.7023 58.6864 30.352 58.6893 29.9977C58.6922 29.6433 58.6245 29.292 58.4903 28.9641C58.356 28.6362 58.1578 28.3383 57.9073 28.0878C57.6567 27.8374 57.3589 27.6394 57.031 27.5053C56.7032 27.3713 56.3519 27.3039 55.9978 27.3072C55.6436 27.3104 55.2937 27.3842 54.9684 27.5242C54.643 27.6642 54.3488 27.8677 54.1029 28.1227V28.1298ZM57.876 28.1298C57.6283 27.8818 57.3342 27.6851 57.0105 27.5509C56.6868 27.4166 56.3399 27.3476 55.9895 27.3476C55.6391 27.3476 55.2921 27.4166 54.9684 27.5509C54.6447 27.6851 54.3506 27.8818 54.1029 28.1298L34.0529 48.1805L27.8295 41.9536C27.5818 41.7057 27.2877 41.5091 26.964 41.3749C26.6403 41.2408 26.2933 41.1717 25.943 41.1717C25.5926 41.1717 25.2457 41.2408 24.922 41.3749C24.5983 41.5091 24.3041 41.7057 24.0564 41.9536C23.8086 42.2015 23.6121 42.4958 23.478 42.8197C23.344 43.1436 23.275 43.4907 23.275 43.8413C23.275 44.1918 23.344 44.539 23.478 44.8629C23.6121 45.1867 23.8086 45.481 24.0564 45.7289L32.1681 53.8417C32.4158 54.0897 32.7099 54.2864 33.0336 54.4207C33.3573 54.5549 33.7043 54.624 34.0547 54.624C34.4051 54.624 34.7521 54.5549 35.0758 54.4207C35.3995 54.2864 35.6936 54.0897 35.9413 53.8417L57.876 31.8944C58.3742 31.3948 58.654 30.7179 58.654 30.0121C58.654 29.3064 58.3742 28.6294 57.876 28.1298Z" fill="#FFD600"/>
</svg>
