<svg width="90" height="90" viewBox="0 0 90 90" fill="none" xmlns="http://www.w3.org/2000/svg">
<path d="M17.1252 45.462C18.2414 48.1536 21.0913 49.1962 23.605 50.1158C25.0024 50.6272 26.4482 51.1562 27.103 51.811C27.4823 52.1905 27.8188 52.8385 28.1346 53.5855L20.0267 77.5569C19.7345 78.4193 19.9915 79.3729 20.6782 79.9722C21.3648 80.5721 22.3448 80.6984 23.1589 80.2925L28.9157 77.4322L31.8579 83.1539C32.2446 83.9075 33.0202 84.375 33.8574 84.375C33.9134 84.375 33.9695 84.3728 34.0266 84.3689C34.9275 84.3014 35.7009 83.701 35.9898 82.8446L43.8986 59.4215C44.2963 59.3082 44.6754 59.2245 45.0008 59.2245C45.3263 59.2245 45.7053 59.3082 46.103 59.4215L54.0118 82.8446C54.3008 83.701 55.0742 84.3014 55.9751 84.3689C56.0322 84.3728 56.0882 84.375 56.1443 84.375C56.9814 84.375 57.7571 83.9075 58.1438 83.1539L61.0859 77.4322L66.8427 80.2925C67.6568 80.6984 68.6368 80.5721 69.3235 79.9722C70.0101 79.3729 70.2672 78.4193 69.9749 77.5569L61.867 53.5855C62.1829 52.8385 62.5194 52.1905 62.8987 51.811C63.5545 51.1556 64.9992 50.6272 66.3967 50.1158C68.9104 49.1957 71.7602 48.1536 72.8764 45.462C73.9531 42.8631 72.7149 40.1649 71.6218 37.7842C70.978 36.3829 70.3122 34.9332 70.3122 33.9137C70.3122 32.8936 70.978 31.4445 71.6218 30.0421C72.7149 27.6619 73.9531 24.9637 72.8764 22.3648C71.7602 19.6732 68.9104 18.6311 66.3967 17.711C64.9992 17.1996 63.5545 16.6712 62.8987 16.0158C62.2439 15.3605 61.7143 13.9153 61.2035 12.5172C60.2839 10.0036 59.2413 7.15372 56.5497 6.03861C53.9525 4.9592 51.252 6.19956 48.8724 7.2927C47.4706 7.9365 46.0204 8.60227 45.0008 8.60227C43.9813 8.60227 42.5311 7.9365 41.1292 7.2927C38.7496 6.19956 36.047 4.96085 33.4531 6.03806C30.7603 7.15427 29.7177 10.0041 28.7982 12.5178C28.2873 13.9158 27.7578 15.3611 27.103 16.0158C26.4482 16.6712 25.0024 17.2002 23.605 17.7116C21.0913 18.6311 18.2414 19.6737 17.1252 22.3654C16.0486 24.9642 17.2867 27.6619 18.3799 30.0426C19.0237 31.4445 19.6894 32.8936 19.6894 33.9137C19.6894 34.9332 19.0237 36.3829 18.3799 37.7842C17.2867 40.1649 16.0486 42.8631 17.1252 45.462ZM33.4278 76.3665L31.9029 73.4007C31.3415 72.3071 30.0023 71.8665 28.9015 72.4147L26.034 73.8391L30.8419 59.6254C31.5022 60.5456 32.3284 61.3231 33.4531 61.7893C34.1595 62.0821 34.8725 62.2035 35.5844 62.2035C36.5273 62.2035 37.468 61.9896 38.3879 61.6781L33.4278 76.3665ZM61.1002 72.4147C59.9994 71.8665 58.6601 72.3071 58.0987 73.4007L56.5738 76.3665L51.6132 61.6767C53.2299 62.2239 54.9109 62.469 56.5486 61.7893C57.6733 61.3231 58.4995 60.5456 59.1597 59.6254L63.9676 73.8391L61.1002 72.4147ZM22.4701 28.1645C21.7955 26.6979 20.9572 24.8719 21.2824 24.0891C21.6417 23.2212 23.5061 22.539 25.1518 21.9375C27.0074 21.258 28.9267 20.5559 30.2846 19.198C31.6425 17.8401 32.3446 15.9203 33.0246 14.0641C33.6256 12.4195 34.3078 10.5551 35.1768 10.1947C35.2966 10.1453 35.4405 10.1228 35.6042 10.1228C36.5095 10.1228 38.0091 10.8116 39.2517 11.3824C41.093 12.2278 42.9969 13.1023 45.0008 13.1023C47.0047 13.1023 48.9087 12.2278 50.75 11.3824C52.2177 10.7089 54.0448 9.87119 54.8259 10.1953C55.6938 10.5551 56.3761 12.4189 56.977 14.0636C57.6571 15.9203 58.3591 17.8396 59.717 19.1975C61.0749 20.5554 62.9942 21.258 64.8509 21.9375C66.4956 22.539 68.36 23.2212 68.7192 24.0886C69.0444 24.8714 68.2062 26.6973 67.5316 28.1645C66.6867 30.0058 65.8122 31.9103 65.8122 33.9137C65.8122 35.917 66.6867 37.821 67.5316 39.6623C68.2062 41.1295 69.0444 42.9554 68.7192 43.7382C68.36 44.6056 66.4956 45.2878 64.8509 45.8893C62.9942 46.5688 61.0749 47.2714 59.717 48.6293C58.3591 49.9872 57.6571 51.9065 56.977 53.7632C56.375 55.4079 55.6938 57.2723 54.8259 57.6321C54.0448 57.9606 52.2177 57.119 50.75 56.4444C48.9087 55.599 47.0047 54.7245 45.0008 54.7245C42.9969 54.7245 41.093 55.599 39.2517 56.4444C37.785 57.119 35.9591 57.9606 35.1758 57.6321C34.3078 57.2723 33.6267 55.4079 33.0246 53.7632C32.3446 51.9065 31.6425 49.9872 30.2846 48.6288C28.9267 47.2714 27.0074 46.5694 25.1518 45.8899C23.5061 45.2884 21.6417 44.6061 21.2824 43.7382C20.9572 42.9554 21.7955 41.1295 22.4701 39.6623C23.3149 37.821 24.1894 35.917 24.1894 33.9137C24.1894 31.9098 23.3149 30.0058 22.4701 28.1645Z" fill="#FFD600"/>
<path d="M45.0001 49.5148C53.6024 49.5148 60.6018 42.5159 60.6018 33.9136C60.6018 25.3113 53.6024 18.3125 45.0001 18.3125C36.3978 18.3125 29.3984 25.3113 29.3984 33.9136C29.3984 42.5159 36.3978 49.5148 45.0001 49.5148ZM45.0001 22.8125C51.1217 22.8125 56.1018 27.7926 56.1018 33.9136C56.1018 40.0347 51.1217 45.0148 45.0001 45.0148C38.8785 45.0148 33.8984 40.0347 33.8984 33.9136C33.8984 27.7926 38.8785 22.8125 45.0001 22.8125Z" fill="#FFD600"/>
</svg>
