<svg width="90" height="90" viewBox="0 0 90 90" fill="none" xmlns="http://www.w3.org/2000/svg">
<path d="M78.75 45.5625C78.75 41.0625 75.2344 38.6719 70.3125 38.6719H56.1094C57.0938 34.875 57.6562 31.2187 57.6562 28.125C57.6562 15.8906 54.2812 13.3594 51.3281 13.3594C49.3594 13.3594 47.9531 13.5 45.9844 14.7656C45.4219 15.0469 45.1406 15.6094 45 16.1719L42.8906 27.5625C40.6406 33.6094 34.875 38.8125 30.2344 42.3281V72.4219C31.7812 72.4219 33.75 73.2656 35.5781 74.25C37.8281 75.375 40.2188 76.5 42.8906 76.5H63C67.2188 76.5 70.3125 73.125 70.3125 70.1719C70.3125 69.6094 70.3125 69.0469 70.1719 68.625C72.8438 67.6406 74.5312 65.3906 74.5312 62.8594C74.5312 61.5938 74.25 60.4687 73.8281 59.625C75.375 58.5 77.0625 56.6719 77.0625 54.4219C77.0625 53.2969 76.5 51.8906 75.6562 50.9063C77.4844 49.5 78.75 47.5312 78.75 45.5625ZM74.3906 45.5625C74.3906 48.2344 71.5781 48.5156 71.1562 49.7812C70.7344 51.1875 72.8438 51.75 72.8438 54.2813C72.8438 56.9531 69.6094 56.9531 69.1875 58.2187C68.625 59.7656 70.1719 60.3281 70.1719 62.8594C70.1719 63 70.1719 63.1406 70.1719 63.2812C69.75 65.3906 66.5156 65.5313 65.9531 66.375C65.3906 67.3594 66.0938 67.9219 66.0938 70.1719C66.0938 71.4375 64.6875 72.2812 63 72.2812H42.8906C41.3438 72.2812 39.375 71.4375 37.5469 70.4531C35.8594 69.6094 34.1719 68.7656 32.3438 68.3438V45.9844C37.5469 42.0469 44.2969 36 46.9688 28.6875C46.9688 28.5469 46.9688 28.4063 47.1094 28.4063L49.0781 17.8594C49.7813 17.5781 50.3437 17.5781 51.4687 17.5781C51.8906 17.5781 53.5781 20.1094 53.5781 28.125C53.5781 31.2187 53.0156 34.7344 51.8906 38.6719H51.3281C50.2031 38.6719 49.2188 39.6562 49.2188 40.7812C49.2188 41.9062 50.2031 42.8906 51.3281 42.8906H70.3125C72.4219 42.8906 74.3906 43.875 74.3906 45.5625Z" fill="#FFD600"/>
<path d="M28.125 76.6406H15.4688C13.0781 76.6406 11.25 74.8125 11.25 72.4219V42.8906C11.25 40.5 13.0781 38.6719 15.4688 38.6719H28.125C30.5156 38.6719 32.3438 40.5 32.3438 42.8906V72.4219C32.3438 74.8125 30.5156 76.6406 28.125 76.6406ZM15.4688 42.8906V72.4219H28.125V42.8906H15.4688Z" fill="#FFD600"/>
</svg>
